M48
; DRILL file {KiCad 8.0.0-8.0.0-1~ubuntu20.04.1} date 2024-03-18T19:09:44+0700
; FORMAT={-:-/ absolute / inch / decimal}
; #@! TF.CreationDate,2024-03-18T19:09:44+07:00
; #@! TF.GenerationSoftware,Kicad,Pcbnew,8.0.0-8.0.0-1~ubuntu20.04.1
; #@! TF.FileFunction,Plated,1,2,PTH
FMAT,2
INCH
; #@! TA.AperFunction,Plated,PTH,ComponentDrill
T1C0.0315
; #@! TA.AperFunction,Plated,PTH,ComponentDrill
T2C0.0394
%
G90
G05
T1
X5.411Y-2.674
X5.411Y-3.074
X5.6031Y-2.5276
X5.607Y-3.219
X5.607Y-3.355
X5.616Y-2.824
X5.616Y-2.924
X5.757Y-2.698
X5.757Y-2.874
X5.757Y-3.051
X5.857Y-2.698
X5.857Y-2.874
X5.857Y-3.051
X5.998Y-2.824
X5.998Y-2.924
X6.0031Y-2.5276
X6.007Y-3.219
X6.007Y-3.355
X6.1959Y-2.674
X6.1959Y-3.074
T2
X5.5134Y-3.685
X5.6134Y-3.685
X5.7134Y-3.685
X5.8134Y-3.685
X5.9134Y-3.685
X6.0134Y-3.685
X6.1134Y-3.685
M30
