%TF.GenerationSoftware,KiCad,Pcbnew,8.0.0-8.0.0-1~ubuntu20.04.1*%
%TF.CreationDate,2024-03-18T19:09:47+07:00*%
%TF.ProjectId,tugas-akhir-eka-selvi,74756761-732d-4616-9b68-69722d656b61,rev?*%
%TF.SameCoordinates,Original*%
%TF.FileFunction,Copper,L2,Bot*%
%TF.FilePolarity,Positive*%
%FSLAX46Y46*%
G04 Gerber Fmt 4.6, Leading zero omitted, Abs format (unit mm)*
G04 Created by KiCad (PCBNEW 8.0.0-8.0.0-1~ubuntu20.04.1) date 2024-03-18 19:09:47*
%MOMM*%
%LPD*%
G01*
G04 APERTURE LIST*
%ADD10C,0.250000*%
%TA.AperFunction,NonConductor*%
%ADD11C,0.250000*%
%TD*%
%TA.AperFunction,ComponentPad*%
%ADD12C,1.600000*%
%TD*%
%TA.AperFunction,ComponentPad*%
%ADD13O,1.600000X1.600000*%
%TD*%
%TA.AperFunction,ComponentPad*%
%ADD14R,1.700000X1.700000*%
%TD*%
%TA.AperFunction,ComponentPad*%
%ADD15O,1.700000X1.700000*%
%TD*%
%TA.AperFunction,Conductor*%
%ADD16C,0.500000*%
%TD*%
G04 APERTURE END LIST*
D10*
D11*
X152553098Y-60097609D02*
X152410241Y-60145228D01*
X152410241Y-60145228D02*
X152362622Y-60192847D01*
X152362622Y-60192847D02*
X152315003Y-60288085D01*
X152315003Y-60288085D02*
X152315003Y-60430942D01*
X152315003Y-60430942D02*
X152362622Y-60526180D01*
X152362622Y-60526180D02*
X152410241Y-60573800D01*
X152410241Y-60573800D02*
X152505479Y-60621419D01*
X152505479Y-60621419D02*
X152886431Y-60621419D01*
X152886431Y-60621419D02*
X152886431Y-59621419D01*
X152886431Y-59621419D02*
X152553098Y-59621419D01*
X152553098Y-59621419D02*
X152457860Y-59669038D01*
X152457860Y-59669038D02*
X152410241Y-59716657D01*
X152410241Y-59716657D02*
X152362622Y-59811895D01*
X152362622Y-59811895D02*
X152362622Y-59907133D01*
X152362622Y-59907133D02*
X152410241Y-60002371D01*
X152410241Y-60002371D02*
X152457860Y-60049990D01*
X152457860Y-60049990D02*
X152553098Y-60097609D01*
X152553098Y-60097609D02*
X152886431Y-60097609D01*
X151743574Y-60621419D02*
X151838812Y-60573800D01*
X151838812Y-60573800D02*
X151886431Y-60478561D01*
X151886431Y-60478561D02*
X151886431Y-59621419D01*
X151219764Y-60621419D02*
X151315002Y-60573800D01*
X151315002Y-60573800D02*
X151362621Y-60526180D01*
X151362621Y-60526180D02*
X151410240Y-60430942D01*
X151410240Y-60430942D02*
X151410240Y-60145228D01*
X151410240Y-60145228D02*
X151362621Y-60049990D01*
X151362621Y-60049990D02*
X151315002Y-60002371D01*
X151315002Y-60002371D02*
X151219764Y-59954752D01*
X151219764Y-59954752D02*
X151076907Y-59954752D01*
X151076907Y-59954752D02*
X150981669Y-60002371D01*
X150981669Y-60002371D02*
X150934050Y-60049990D01*
X150934050Y-60049990D02*
X150886431Y-60145228D01*
X150886431Y-60145228D02*
X150886431Y-60430942D01*
X150886431Y-60430942D02*
X150934050Y-60526180D01*
X150934050Y-60526180D02*
X150981669Y-60573800D01*
X150981669Y-60573800D02*
X151076907Y-60621419D01*
X151076907Y-60621419D02*
X151219764Y-60621419D01*
X150315002Y-60621419D02*
X150410240Y-60573800D01*
X150410240Y-60573800D02*
X150457859Y-60526180D01*
X150457859Y-60526180D02*
X150505478Y-60430942D01*
X150505478Y-60430942D02*
X150505478Y-60145228D01*
X150505478Y-60145228D02*
X150457859Y-60049990D01*
X150457859Y-60049990D02*
X150410240Y-60002371D01*
X150410240Y-60002371D02*
X150315002Y-59954752D01*
X150315002Y-59954752D02*
X150172145Y-59954752D01*
X150172145Y-59954752D02*
X150076907Y-60002371D01*
X150076907Y-60002371D02*
X150029288Y-60049990D01*
X150029288Y-60049990D02*
X149981669Y-60145228D01*
X149981669Y-60145228D02*
X149981669Y-60430942D01*
X149981669Y-60430942D02*
X150029288Y-60526180D01*
X150029288Y-60526180D02*
X150076907Y-60573800D01*
X150076907Y-60573800D02*
X150172145Y-60621419D01*
X150172145Y-60621419D02*
X150315002Y-60621419D01*
X149124526Y-60621419D02*
X149124526Y-59621419D01*
X149124526Y-60573800D02*
X149219764Y-60621419D01*
X149219764Y-60621419D02*
X149410240Y-60621419D01*
X149410240Y-60621419D02*
X149505478Y-60573800D01*
X149505478Y-60573800D02*
X149553097Y-60526180D01*
X149553097Y-60526180D02*
X149600716Y-60430942D01*
X149600716Y-60430942D02*
X149600716Y-60145228D01*
X149600716Y-60145228D02*
X149553097Y-60049990D01*
X149553097Y-60049990D02*
X149505478Y-60002371D01*
X149505478Y-60002371D02*
X149410240Y-59954752D01*
X149410240Y-59954752D02*
X149219764Y-59954752D01*
X149219764Y-59954752D02*
X149124526Y-60002371D01*
X147886430Y-60621419D02*
X147886430Y-59621419D01*
X147886430Y-59621419D02*
X147648335Y-59621419D01*
X147648335Y-59621419D02*
X147505478Y-59669038D01*
X147505478Y-59669038D02*
X147410240Y-59764276D01*
X147410240Y-59764276D02*
X147362621Y-59859514D01*
X147362621Y-59859514D02*
X147315002Y-60049990D01*
X147315002Y-60049990D02*
X147315002Y-60192847D01*
X147315002Y-60192847D02*
X147362621Y-60383323D01*
X147362621Y-60383323D02*
X147410240Y-60478561D01*
X147410240Y-60478561D02*
X147505478Y-60573800D01*
X147505478Y-60573800D02*
X147648335Y-60621419D01*
X147648335Y-60621419D02*
X147886430Y-60621419D01*
X146505478Y-60573800D02*
X146600716Y-60621419D01*
X146600716Y-60621419D02*
X146791192Y-60621419D01*
X146791192Y-60621419D02*
X146886430Y-60573800D01*
X146886430Y-60573800D02*
X146934049Y-60478561D01*
X146934049Y-60478561D02*
X146934049Y-60097609D01*
X146934049Y-60097609D02*
X146886430Y-60002371D01*
X146886430Y-60002371D02*
X146791192Y-59954752D01*
X146791192Y-59954752D02*
X146600716Y-59954752D01*
X146600716Y-59954752D02*
X146505478Y-60002371D01*
X146505478Y-60002371D02*
X146457859Y-60097609D01*
X146457859Y-60097609D02*
X146457859Y-60192847D01*
X146457859Y-60192847D02*
X146934049Y-60288085D01*
X146172144Y-59954752D02*
X145791192Y-59954752D01*
X146029287Y-59621419D02*
X146029287Y-60478561D01*
X146029287Y-60478561D02*
X145981668Y-60573800D01*
X145981668Y-60573800D02*
X145886430Y-60621419D01*
X145886430Y-60621419D02*
X145791192Y-60621419D01*
X145076906Y-60573800D02*
X145172144Y-60621419D01*
X145172144Y-60621419D02*
X145362620Y-60621419D01*
X145362620Y-60621419D02*
X145457858Y-60573800D01*
X145457858Y-60573800D02*
X145505477Y-60478561D01*
X145505477Y-60478561D02*
X145505477Y-60097609D01*
X145505477Y-60097609D02*
X145457858Y-60002371D01*
X145457858Y-60002371D02*
X145362620Y-59954752D01*
X145362620Y-59954752D02*
X145172144Y-59954752D01*
X145172144Y-59954752D02*
X145076906Y-60002371D01*
X145076906Y-60002371D02*
X145029287Y-60097609D01*
X145029287Y-60097609D02*
X145029287Y-60192847D01*
X145029287Y-60192847D02*
X145505477Y-60288085D01*
X144172144Y-60573800D02*
X144267382Y-60621419D01*
X144267382Y-60621419D02*
X144457858Y-60621419D01*
X144457858Y-60621419D02*
X144553096Y-60573800D01*
X144553096Y-60573800D02*
X144600715Y-60526180D01*
X144600715Y-60526180D02*
X144648334Y-60430942D01*
X144648334Y-60430942D02*
X144648334Y-60145228D01*
X144648334Y-60145228D02*
X144600715Y-60049990D01*
X144600715Y-60049990D02*
X144553096Y-60002371D01*
X144553096Y-60002371D02*
X144457858Y-59954752D01*
X144457858Y-59954752D02*
X144267382Y-59954752D01*
X144267382Y-59954752D02*
X144172144Y-60002371D01*
X143886429Y-59954752D02*
X143505477Y-59954752D01*
X143743572Y-59621419D02*
X143743572Y-60478561D01*
X143743572Y-60478561D02*
X143695953Y-60573800D01*
X143695953Y-60573800D02*
X143600715Y-60621419D01*
X143600715Y-60621419D02*
X143505477Y-60621419D01*
X143029286Y-60621419D02*
X143124524Y-60573800D01*
X143124524Y-60573800D02*
X143172143Y-60526180D01*
X143172143Y-60526180D02*
X143219762Y-60430942D01*
X143219762Y-60430942D02*
X143219762Y-60145228D01*
X143219762Y-60145228D02*
X143172143Y-60049990D01*
X143172143Y-60049990D02*
X143124524Y-60002371D01*
X143124524Y-60002371D02*
X143029286Y-59954752D01*
X143029286Y-59954752D02*
X142886429Y-59954752D01*
X142886429Y-59954752D02*
X142791191Y-60002371D01*
X142791191Y-60002371D02*
X142743572Y-60049990D01*
X142743572Y-60049990D02*
X142695953Y-60145228D01*
X142695953Y-60145228D02*
X142695953Y-60430942D01*
X142695953Y-60430942D02*
X142743572Y-60526180D01*
X142743572Y-60526180D02*
X142791191Y-60573800D01*
X142791191Y-60573800D02*
X142886429Y-60621419D01*
X142886429Y-60621419D02*
X143029286Y-60621419D01*
X142267381Y-60621419D02*
X142267381Y-59954752D01*
X142267381Y-60145228D02*
X142219762Y-60049990D01*
X142219762Y-60049990D02*
X142172143Y-60002371D01*
X142172143Y-60002371D02*
X142076905Y-59954752D01*
X142076905Y-59954752D02*
X141981667Y-59954752D01*
D12*
%TO.P,R16,1*%
%TO.N,+5V*%
X148767800Y-72999600D03*
%TO.P,R16,2*%
%TO.N,/A2*%
X146227800Y-72999600D03*
%TD*%
%TO.P,R3,1*%
%TO.N,+5V*%
X146227800Y-68529200D03*
%TO.P,R3,2*%
%TO.N,/A0*%
X148767800Y-68529200D03*
%TD*%
%TO.P,R13,1*%
%TO.N,+5V*%
X142646400Y-74269600D03*
%TO.P,R13,2*%
%TO.N,/A1*%
X142646400Y-71729600D03*
%TD*%
%TO.P,R14,1*%
%TO.N,/A2*%
X142417800Y-85217000D03*
D13*
%TO.P,R14,2*%
%TO.N,GND*%
X152577800Y-85217000D03*
%TD*%
D12*
%TO.P,R5,1*%
%TO.N,+5V*%
X152349200Y-71729600D03*
%TO.P,R5,2*%
%TO.N,/A4*%
X152349200Y-74269600D03*
%TD*%
D13*
%TO.P,R11,2*%
%TO.N,GND*%
X142320000Y-64200000D03*
D12*
%TO.P,R11,1*%
%TO.N,/A0*%
X152480000Y-64200000D03*
%TD*%
%TO.P,R12,1*%
%TO.N,/A1*%
X137439400Y-67919600D03*
D13*
%TO.P,R12,2*%
%TO.N,GND*%
X137439400Y-78079600D03*
%TD*%
D12*
%TO.P,R4,1*%
%TO.N,/A4*%
X157376200Y-67919600D03*
D13*
%TO.P,R4,2*%
%TO.N,GND*%
X157376200Y-78079600D03*
%TD*%
D12*
%TO.P,R17,1*%
%TO.N,+5V*%
X148767800Y-77495400D03*
%TO.P,R17,2*%
%TO.N,/A3*%
X146227800Y-77495400D03*
%TD*%
D14*
%TO.P,J1,1,Pin_1*%
%TO.N,GND*%
X140040000Y-93600000D03*
D15*
%TO.P,J1,2,Pin_2*%
%TO.N,/A0*%
X142580000Y-93600000D03*
%TO.P,J1,3,Pin_3*%
%TO.N,/A1*%
X145120000Y-93600000D03*
%TO.P,J1,4,Pin_4*%
%TO.N,/A2*%
X147660000Y-93600000D03*
%TO.P,J1,5,Pin_5*%
%TO.N,/A3*%
X150200000Y-93600000D03*
%TO.P,J1,6,Pin_6*%
%TO.N,/A4*%
X152740000Y-93600000D03*
%TO.P,J1,7,Pin_7*%
%TO.N,+5V*%
X155280000Y-93600000D03*
%TD*%
D12*
%TO.P,R15,1*%
%TO.N,/A3*%
X142417800Y-81762600D03*
D13*
%TO.P,R15,2*%
%TO.N,GND*%
X152577800Y-81762600D03*
%TD*%
D16*
%TO.N,/A1*%
X145120000Y-93600000D02*
X140004800Y-88484800D01*
X140004800Y-88484800D02*
X140004800Y-76581000D01*
X140004800Y-76581000D02*
X137439400Y-74015600D01*
X137439400Y-74015600D02*
X137439400Y-67919600D01*
%TO.N,/A0*%
X142580000Y-93600000D02*
X139115800Y-90135800D01*
X139115800Y-90135800D02*
X139115800Y-77012800D01*
X139115800Y-77012800D02*
X135813800Y-73710800D01*
X135813800Y-73710800D02*
X135813800Y-67056000D01*
X135813800Y-67056000D02*
X136880600Y-65989200D01*
X136880600Y-65989200D02*
X146227800Y-65989200D01*
X146227800Y-65989200D02*
X148767800Y-68529200D01*
%TO.N,/A4*%
X152349200Y-74269600D02*
X157376200Y-69242600D01*
X157376200Y-69242600D02*
X157376200Y-67919600D01*
%TO.N,+5V*%
X155280000Y-93600000D02*
X149504400Y-87824400D01*
X149504400Y-80391000D02*
X159435800Y-70459600D01*
X149504400Y-87824400D02*
X149504400Y-80391000D01*
X159435800Y-70459600D02*
X159435800Y-67030600D01*
X159435800Y-67030600D02*
X158673800Y-66268600D01*
X158673800Y-66268600D02*
X155346400Y-66268600D01*
X155346400Y-66268600D02*
X152349200Y-69265800D01*
X152349200Y-69265800D02*
X152349200Y-71729600D01*
%TO.N,/A4*%
X152740000Y-93600000D02*
X147015200Y-87875200D01*
X147015200Y-87875200D02*
X147015200Y-81534000D01*
X147015200Y-81534000D02*
X152349200Y-76200000D01*
X152349200Y-76200000D02*
X152349200Y-74269600D01*
%TO.N,/A3*%
X150200000Y-93600000D02*
X144246600Y-87646600D01*
X144246600Y-87646600D02*
X144246600Y-83591400D01*
X144246600Y-83591400D02*
X142417800Y-81762600D01*
%TO.N,/A0*%
X148767800Y-68529200D02*
X150545800Y-68529200D01*
X152480000Y-66595000D02*
X152480000Y-64200000D01*
X150545800Y-68529200D02*
X152480000Y-66595000D01*
%TO.N,+5V*%
X148767800Y-77495400D02*
X148767800Y-72999600D01*
X148767800Y-72999600D02*
X151079200Y-72999600D01*
X151079200Y-72999600D02*
X152349200Y-71729600D01*
X146227800Y-70688200D02*
X147955000Y-70688200D01*
X147955000Y-70688200D02*
X148767800Y-71501000D01*
X148767800Y-71501000D02*
X148767800Y-72999600D01*
X142646400Y-74269600D02*
X146227800Y-70688200D01*
X146227800Y-70688200D02*
X146227800Y-68529200D01*
%TO.N,/A3*%
X142417800Y-81762600D02*
X142417800Y-79502000D01*
X142417800Y-79502000D02*
X144424400Y-77495400D01*
X144424400Y-77495400D02*
X146227800Y-77495400D01*
%TO.N,/A2*%
X142417800Y-85217000D02*
X140893800Y-83693000D01*
X140893800Y-83693000D02*
X140893800Y-78333600D01*
X140893800Y-78333600D02*
X146227800Y-72999600D01*
%TO.N,/A1*%
X137439400Y-67919600D02*
X141274800Y-67919600D01*
X142646400Y-69291200D02*
X142646400Y-71729600D01*
X141274800Y-67919600D02*
X142646400Y-69291200D01*
%TO.N,/A2*%
X147660000Y-93600000D02*
X142417800Y-88357800D01*
X142417800Y-88357800D02*
X142417800Y-85217000D01*
%TD*%
%TA.AperFunction,Conductor*%
%TO.N,GND*%
G36*
X141294206Y-59371985D02*
G01*
X141339961Y-59424789D01*
X141351167Y-59476300D01*
X141351167Y-61253354D01*
X153516931Y-61253354D01*
X153516931Y-59476300D01*
X153536616Y-59409261D01*
X153589420Y-59363506D01*
X153640931Y-59352300D01*
X162081300Y-59352300D01*
X162148339Y-59371985D01*
X162194094Y-59424789D01*
X162205300Y-59476300D01*
X162205300Y-95362100D01*
X162185615Y-95429139D01*
X162132811Y-95474894D01*
X162081300Y-95486100D01*
X133219100Y-95486100D01*
X133152061Y-95466415D01*
X133106306Y-95413611D01*
X133095100Y-95362100D01*
X133095100Y-73784720D01*
X135063299Y-73784720D01*
X135092140Y-73929707D01*
X135092143Y-73929717D01*
X135148714Y-74066292D01*
X135164232Y-74089516D01*
X135164233Y-74089519D01*
X135230846Y-74189214D01*
X135230852Y-74189221D01*
X137675966Y-76634335D01*
X137709451Y-76695658D01*
X137704467Y-76765350D01*
X137689400Y-76785728D01*
X137689400Y-77763914D01*
X137685006Y-77759520D01*
X137593794Y-77706859D01*
X137492061Y-77679600D01*
X137386739Y-77679600D01*
X137285006Y-77706859D01*
X137193794Y-77759520D01*
X137189400Y-77763914D01*
X137189400Y-76800727D01*
X136993071Y-76853334D01*
X136786917Y-76949465D01*
X136600579Y-77079942D01*
X136439742Y-77240779D01*
X136309265Y-77427117D01*
X136213134Y-77633273D01*
X136213130Y-77633282D01*
X136160527Y-77829599D01*
X136160528Y-77829600D01*
X137123714Y-77829600D01*
X137119320Y-77833994D01*
X137066659Y-77925206D01*
X137039400Y-78026939D01*
X137039400Y-78132261D01*
X137066659Y-78233994D01*
X137119320Y-78325206D01*
X137123714Y-78329600D01*
X136160528Y-78329600D01*
X136213130Y-78525917D01*
X136213134Y-78525926D01*
X136309265Y-78732082D01*
X136439742Y-78918420D01*
X136600579Y-79079257D01*
X136786917Y-79209734D01*
X136993073Y-79305865D01*
X136993082Y-79305869D01*
X137189399Y-79358472D01*
X137189400Y-79358471D01*
X137189400Y-78395286D01*
X137193794Y-78399680D01*
X137285006Y-78452341D01*
X137386739Y-78479600D01*
X137492061Y-78479600D01*
X137593794Y-78452341D01*
X137685006Y-78399680D01*
X137689400Y-78395286D01*
X137689400Y-79358472D01*
X137885717Y-79305869D01*
X137885726Y-79305865D01*
X138091883Y-79209733D01*
X138091889Y-79209730D01*
X138170176Y-79154912D01*
X138236381Y-79132584D01*
X138304149Y-79149593D01*
X138351962Y-79200541D01*
X138365300Y-79256486D01*
X138365300Y-90209718D01*
X138365300Y-90209720D01*
X138365299Y-90209720D01*
X138394140Y-90354707D01*
X138394143Y-90354717D01*
X138450714Y-90491292D01*
X138483612Y-90540527D01*
X138483613Y-90540530D01*
X138532846Y-90614214D01*
X138532852Y-90614221D01*
X139956952Y-92038319D01*
X139990437Y-92099642D01*
X139985453Y-92169333D01*
X139943582Y-92225267D01*
X139878117Y-92249684D01*
X139869271Y-92250000D01*
X139142155Y-92250000D01*
X139082627Y-92256401D01*
X139082620Y-92256403D01*
X138947913Y-92306645D01*
X138947906Y-92306649D01*
X138832812Y-92392809D01*
X138832809Y-92392812D01*
X138746649Y-92507906D01*
X138746645Y-92507913D01*
X138696403Y-92642620D01*
X138696401Y-92642627D01*
X138690000Y-92702155D01*
X138690000Y-93350000D01*
X139606988Y-93350000D01*
X139574075Y-93407007D01*
X139540000Y-93534174D01*
X139540000Y-93665826D01*
X139574075Y-93792993D01*
X139606988Y-93850000D01*
X138690000Y-93850000D01*
X138690000Y-94497844D01*
X138696401Y-94557372D01*
X138696403Y-94557379D01*
X138746645Y-94692086D01*
X138746649Y-94692093D01*
X138832809Y-94807187D01*
X138832812Y-94807190D01*
X138947906Y-94893350D01*
X138947913Y-94893354D01*
X139082620Y-94943596D01*
X139082627Y-94943598D01*
X139142155Y-94949999D01*
X139142172Y-94950000D01*
X139790000Y-94950000D01*
X139790000Y-94033012D01*
X139847007Y-94065925D01*
X139974174Y-94100000D01*
X140105826Y-94100000D01*
X140232993Y-94065925D01*
X140290000Y-94033012D01*
X140290000Y-94950000D01*
X140937828Y-94950000D01*
X140937844Y-94949999D01*
X140997372Y-94943598D01*
X140997379Y-94943596D01*
X141132086Y-94893354D01*
X141132093Y-94893350D01*
X141247187Y-94807190D01*
X141247190Y-94807187D01*
X141333350Y-94692093D01*
X141333354Y-94692086D01*
X141382422Y-94560529D01*
X141424293Y-94504595D01*
X141489757Y-94480178D01*
X141558030Y-94495030D01*
X141586285Y-94516181D01*
X141708599Y-94638495D01*
X141785135Y-94692086D01*
X141902165Y-94774032D01*
X141902167Y-94774033D01*
X141902170Y-94774035D01*
X142116337Y-94873903D01*
X142344592Y-94935063D01*
X142515319Y-94950000D01*
X142579999Y-94955659D01*
X142580000Y-94955659D01*
X142580001Y-94955659D01*
X142644681Y-94950000D01*
X142815408Y-94935063D01*
X143043663Y-94873903D01*
X143257830Y-94774035D01*
X143451401Y-94638495D01*
X143618495Y-94471401D01*
X143748425Y-94285842D01*
X143803002Y-94242217D01*
X143872500Y-94235023D01*
X143934855Y-94266546D01*
X143951575Y-94285842D01*
X144081500Y-94471395D01*
X144081505Y-94471401D01*
X144248599Y-94638495D01*
X144325135Y-94692086D01*
X144442165Y-94774032D01*
X144442167Y-94774033D01*
X144442170Y-94774035D01*
X144656337Y-94873903D01*
X144884592Y-94935063D01*
X145055319Y-94950000D01*
X145119999Y-94955659D01*
X145120000Y-94955659D01*
X145120001Y-94955659D01*
X145184681Y-94950000D01*
X145355408Y-94935063D01*
X145583663Y-94873903D01*
X145797830Y-94774035D01*
X145991401Y-94638495D01*
X146158495Y-94471401D01*
X146288425Y-94285842D01*
X146343002Y-94242217D01*
X146412500Y-94235023D01*
X146474855Y-94266546D01*
X146491575Y-94285842D01*
X146621500Y-94471395D01*
X146621505Y-94471401D01*
X146788599Y-94638495D01*
X146865135Y-94692086D01*
X146982165Y-94774032D01*
X146982167Y-94774033D01*
X146982170Y-94774035D01*
X147196337Y-94873903D01*
X147424592Y-94935063D01*
X147595319Y-94950000D01*
X147659999Y-94955659D01*
X147660000Y-94955659D01*
X147660001Y-94955659D01*
X147724681Y-94950000D01*
X147895408Y-94935063D01*
X148123663Y-94873903D01*
X148337830Y-94774035D01*
X148531401Y-94638495D01*
X148698495Y-94471401D01*
X148828425Y-94285842D01*
X148883002Y-94242217D01*
X148952500Y-94235023D01*
X149014855Y-94266546D01*
X149031575Y-94285842D01*
X149161500Y-94471395D01*
X149161505Y-94471401D01*
X149328599Y-94638495D01*
X149405135Y-94692086D01*
X149522165Y-94774032D01*
X149522167Y-94774033D01*
X149522170Y-94774035D01*
X149736337Y-94873903D01*
X149964592Y-94935063D01*
X150135319Y-94950000D01*
X150199999Y-94955659D01*
X150200000Y-94955659D01*
X150200001Y-94955659D01*
X150264681Y-94950000D01*
X150435408Y-94935063D01*
X150663663Y-94873903D01*
X150877830Y-94774035D01*
X151071401Y-94638495D01*
X151238495Y-94471401D01*
X151368425Y-94285842D01*
X151423002Y-94242217D01*
X151492500Y-94235023D01*
X151554855Y-94266546D01*
X151571575Y-94285842D01*
X151701500Y-94471395D01*
X151701505Y-94471401D01*
X151868599Y-94638495D01*
X151945135Y-94692086D01*
X152062165Y-94774032D01*
X152062167Y-94774033D01*
X152062170Y-94774035D01*
X152276337Y-94873903D01*
X152504592Y-94935063D01*
X152675319Y-94950000D01*
X152739999Y-94955659D01*
X152740000Y-94955659D01*
X152740001Y-94955659D01*
X152804681Y-94950000D01*
X152975408Y-94935063D01*
X153203663Y-94873903D01*
X153417830Y-94774035D01*
X153611401Y-94638495D01*
X153778495Y-94471401D01*
X153908425Y-94285842D01*
X153963002Y-94242217D01*
X154032500Y-94235023D01*
X154094855Y-94266546D01*
X154111575Y-94285842D01*
X154241500Y-94471395D01*
X154241505Y-94471401D01*
X154408599Y-94638495D01*
X154485135Y-94692086D01*
X154602165Y-94774032D01*
X154602167Y-94774033D01*
X154602170Y-94774035D01*
X154816337Y-94873903D01*
X155044592Y-94935063D01*
X155215319Y-94950000D01*
X155279999Y-94955659D01*
X155280000Y-94955659D01*
X155280001Y-94955659D01*
X155344681Y-94950000D01*
X155515408Y-94935063D01*
X155743663Y-94873903D01*
X155957830Y-94774035D01*
X156151401Y-94638495D01*
X156318495Y-94471401D01*
X156454035Y-94277830D01*
X156553903Y-94063663D01*
X156615063Y-93835408D01*
X156635659Y-93600000D01*
X156615063Y-93364592D01*
X156553903Y-93136337D01*
X156454035Y-92922171D01*
X156318495Y-92728599D01*
X156318494Y-92728597D01*
X156151402Y-92561506D01*
X156151395Y-92561501D01*
X155957834Y-92425967D01*
X155957830Y-92425965D01*
X155886727Y-92392809D01*
X155743663Y-92326097D01*
X155743659Y-92326096D01*
X155743655Y-92326094D01*
X155515413Y-92264938D01*
X155515403Y-92264936D01*
X155280001Y-92244341D01*
X155279998Y-92244341D01*
X155066986Y-92262977D01*
X154998486Y-92249210D01*
X154968498Y-92227130D01*
X150291219Y-87549851D01*
X150257734Y-87488528D01*
X150254900Y-87462170D01*
X150254900Y-84966999D01*
X151298927Y-84966999D01*
X151298928Y-84967000D01*
X152262114Y-84967000D01*
X152257720Y-84971394D01*
X152205059Y-85062606D01*
X152177800Y-85164339D01*
X152177800Y-85269661D01*
X152205059Y-85371394D01*
X152257720Y-85462606D01*
X152262114Y-85467000D01*
X151298928Y-85467000D01*
X151351530Y-85663317D01*
X151351534Y-85663326D01*
X151447665Y-85869482D01*
X151578142Y-86055820D01*
X151738979Y-86216657D01*
X151925317Y-86347134D01*
X152131473Y-86443265D01*
X152131482Y-86443269D01*
X152327799Y-86495872D01*
X152327800Y-86495871D01*
X152327800Y-85532686D01*
X152332194Y-85537080D01*
X152423406Y-85589741D01*
X152525139Y-85617000D01*
X152630461Y-85617000D01*
X152732194Y-85589741D01*
X152823406Y-85537080D01*
X152827800Y-85532686D01*
X152827800Y-86495872D01*
X153024117Y-86443269D01*
X153024126Y-86443265D01*
X153230282Y-86347134D01*
X153416620Y-86216657D01*
X153577457Y-86055820D01*
X153707934Y-85869482D01*
X153804065Y-85663326D01*
X153804069Y-85663317D01*
X153856672Y-85467000D01*
X152893486Y-85467000D01*
X152897880Y-85462606D01*
X152950541Y-85371394D01*
X152977800Y-85269661D01*
X152977800Y-85164339D01*
X152950541Y-85062606D01*
X152897880Y-84971394D01*
X152893486Y-84967000D01*
X153856672Y-84967000D01*
X153856672Y-84966999D01*
X153804069Y-84770682D01*
X153804065Y-84770673D01*
X153707934Y-84564517D01*
X153577457Y-84378179D01*
X153416620Y-84217342D01*
X153230282Y-84086865D01*
X153024128Y-83990734D01*
X152827800Y-83938127D01*
X152827800Y-84901314D01*
X152823406Y-84896920D01*
X152732194Y-84844259D01*
X152630461Y-84817000D01*
X152525139Y-84817000D01*
X152423406Y-84844259D01*
X152332194Y-84896920D01*
X152327800Y-84901314D01*
X152327800Y-83938127D01*
X152131471Y-83990734D01*
X151925317Y-84086865D01*
X151738979Y-84217342D01*
X151578142Y-84378179D01*
X151447665Y-84564517D01*
X151351534Y-84770673D01*
X151351530Y-84770682D01*
X151298927Y-84966999D01*
X150254900Y-84966999D01*
X150254900Y-81512599D01*
X151298927Y-81512599D01*
X151298928Y-81512600D01*
X152262114Y-81512600D01*
X152257720Y-81516994D01*
X152205059Y-81608206D01*
X152177800Y-81709939D01*
X152177800Y-81815261D01*
X152205059Y-81916994D01*
X152257720Y-82008206D01*
X152262114Y-82012600D01*
X151298928Y-82012600D01*
X151351530Y-82208917D01*
X151351534Y-82208926D01*
X151447665Y-82415082D01*
X151578142Y-82601420D01*
X151738979Y-82762257D01*
X151925317Y-82892734D01*
X152131473Y-82988865D01*
X152131482Y-82988869D01*
X152327799Y-83041472D01*
X152327800Y-83041471D01*
X152327800Y-82078286D01*
X152332194Y-82082680D01*
X152423406Y-82135341D01*
X152525139Y-82162600D01*
X152630461Y-82162600D01*
X152732194Y-82135341D01*
X152823406Y-82082680D01*
X152827800Y-82078286D01*
X152827800Y-83041472D01*
X153024117Y-82988869D01*
X153024126Y-82988865D01*
X153230282Y-82892734D01*
X153416620Y-82762257D01*
X153577457Y-82601420D01*
X153707934Y-82415082D01*
X153804065Y-82208926D01*
X153804069Y-82208917D01*
X153856672Y-82012600D01*
X152893486Y-82012600D01*
X152897880Y-82008206D01*
X152950541Y-81916994D01*
X152977800Y-81815261D01*
X152977800Y-81709939D01*
X152950541Y-81608206D01*
X152897880Y-81516994D01*
X152893486Y-81512600D01*
X153856672Y-81512600D01*
X153856672Y-81512599D01*
X153804069Y-81316282D01*
X153804065Y-81316273D01*
X153707934Y-81110117D01*
X153577457Y-80923779D01*
X153416620Y-80762942D01*
X153230282Y-80632465D01*
X153024128Y-80536334D01*
X152827800Y-80483727D01*
X152827800Y-81446914D01*
X152823406Y-81442520D01*
X152732194Y-81389859D01*
X152630461Y-81362600D01*
X152525139Y-81362600D01*
X152423406Y-81389859D01*
X152332194Y-81442520D01*
X152327800Y-81446914D01*
X152327800Y-80483727D01*
X152131471Y-80536334D01*
X151925317Y-80632465D01*
X151738979Y-80762942D01*
X151578142Y-80923779D01*
X151447665Y-81110117D01*
X151351534Y-81316273D01*
X151351530Y-81316282D01*
X151298927Y-81512599D01*
X150254900Y-81512599D01*
X150254900Y-80753229D01*
X150274585Y-80686190D01*
X150291219Y-80665548D01*
X153127168Y-77829599D01*
X156097327Y-77829599D01*
X156097328Y-77829600D01*
X157060514Y-77829600D01*
X157056120Y-77833994D01*
X157003459Y-77925206D01*
X156976200Y-78026939D01*
X156976200Y-78132261D01*
X157003459Y-78233994D01*
X157056120Y-78325206D01*
X157060514Y-78329600D01*
X156097328Y-78329600D01*
X156149930Y-78525917D01*
X156149934Y-78525926D01*
X156246065Y-78732082D01*
X156376542Y-78918420D01*
X156537379Y-79079257D01*
X156723717Y-79209734D01*
X156929873Y-79305865D01*
X156929882Y-79305869D01*
X157126199Y-79358472D01*
X157126200Y-79358471D01*
X157126200Y-78395286D01*
X157130594Y-78399680D01*
X157221806Y-78452341D01*
X157323539Y-78479600D01*
X157428861Y-78479600D01*
X157530594Y-78452341D01*
X157621806Y-78399680D01*
X157626200Y-78395286D01*
X157626200Y-79358472D01*
X157822517Y-79305869D01*
X157822526Y-79305865D01*
X158028682Y-79209734D01*
X158215020Y-79079257D01*
X158375857Y-78918420D01*
X158506334Y-78732082D01*
X158602465Y-78525926D01*
X158602469Y-78525917D01*
X158655072Y-78329600D01*
X157691886Y-78329600D01*
X157696280Y-78325206D01*
X157748941Y-78233994D01*
X157776200Y-78132261D01*
X157776200Y-78026939D01*
X157748941Y-77925206D01*
X157696280Y-77833994D01*
X157691886Y-77829600D01*
X158655072Y-77829600D01*
X158655072Y-77829599D01*
X158602469Y-77633282D01*
X158602465Y-77633273D01*
X158506334Y-77427117D01*
X158375857Y-77240779D01*
X158215020Y-77079942D01*
X158028682Y-76949465D01*
X157822528Y-76853334D01*
X157626200Y-76800727D01*
X157626200Y-77763914D01*
X157621806Y-77759520D01*
X157530594Y-77706859D01*
X157428861Y-77679600D01*
X157323539Y-77679600D01*
X157221806Y-77706859D01*
X157130594Y-77759520D01*
X157126200Y-77763914D01*
X157126200Y-76800727D01*
X156929871Y-76853334D01*
X156723717Y-76949465D01*
X156537379Y-77079942D01*
X156376542Y-77240779D01*
X156246065Y-77427117D01*
X156149934Y-77633273D01*
X156149930Y-77633282D01*
X156097327Y-77829599D01*
X153127168Y-77829599D01*
X160018750Y-70938017D01*
X160018752Y-70938015D01*
X160068403Y-70863706D01*
X160100884Y-70815095D01*
X160136317Y-70729553D01*
X160157459Y-70678512D01*
X160186300Y-70533517D01*
X160186300Y-70385682D01*
X160186300Y-66956682D01*
X160186300Y-66956679D01*
X160174405Y-66896885D01*
X160162511Y-66837088D01*
X160157459Y-66811688D01*
X160111405Y-66700505D01*
X160111401Y-66700496D01*
X160100885Y-66675107D01*
X160084957Y-66651268D01*
X160035723Y-66577584D01*
X160035723Y-66577583D01*
X160027237Y-66564884D01*
X160018752Y-66552184D01*
X159699338Y-66232770D01*
X159152221Y-65685652D01*
X159152220Y-65685651D01*
X159074476Y-65633705D01*
X159074475Y-65633704D01*
X159029301Y-65603519D01*
X159029288Y-65603512D01*
X158892717Y-65546943D01*
X158892707Y-65546940D01*
X158747720Y-65518100D01*
X158747718Y-65518100D01*
X155272482Y-65518100D01*
X155272480Y-65518100D01*
X155127492Y-65546940D01*
X155127482Y-65546943D01*
X154990911Y-65603512D01*
X154990898Y-65603519D01*
X154945725Y-65633704D01*
X154945724Y-65633705D01*
X154867979Y-65685651D01*
X151766250Y-68787380D01*
X151766244Y-68787388D01*
X151717012Y-68861068D01*
X151717013Y-68861069D01*
X151684121Y-68910296D01*
X151684114Y-68910308D01*
X151627542Y-69046886D01*
X151627540Y-69046892D01*
X151598700Y-69191879D01*
X151598700Y-70602936D01*
X151579015Y-70669975D01*
X151545825Y-70704510D01*
X151510063Y-70729551D01*
X151349151Y-70890462D01*
X151218632Y-71076865D01*
X151218631Y-71076867D01*
X151122461Y-71283102D01*
X151122458Y-71283111D01*
X151063566Y-71502902D01*
X151063564Y-71502913D01*
X151043732Y-71729598D01*
X151043732Y-71729603D01*
X151058329Y-71896461D01*
X151044562Y-71964960D01*
X151022482Y-71994948D01*
X150804649Y-72212782D01*
X150743329Y-72246266D01*
X150716970Y-72249100D01*
X149894463Y-72249100D01*
X149827424Y-72229415D01*
X149792888Y-72196223D01*
X149767848Y-72160462D01*
X149767844Y-72160458D01*
X149606939Y-71999553D01*
X149600362Y-71994948D01*
X149571175Y-71974510D01*
X149527551Y-71919932D01*
X149518300Y-71872936D01*
X149518300Y-71427079D01*
X149489459Y-71282092D01*
X149489458Y-71282091D01*
X149489458Y-71282087D01*
X149489456Y-71282082D01*
X149432887Y-71145511D01*
X149432880Y-71145498D01*
X149378769Y-71064516D01*
X149378768Y-71064514D01*
X149350754Y-71022586D01*
X149350750Y-71022582D01*
X148433421Y-70105252D01*
X148433414Y-70105246D01*
X148338308Y-70041699D01*
X148338308Y-70041700D01*
X148310495Y-70023116D01*
X148310492Y-70023114D01*
X148310491Y-70023114D01*
X148173917Y-69966543D01*
X148173907Y-69966540D01*
X148028920Y-69937700D01*
X148028918Y-69937700D01*
X147102300Y-69937700D01*
X147035261Y-69918015D01*
X146989506Y-69865211D01*
X146978300Y-69813700D01*
X146978300Y-69655862D01*
X146997985Y-69588823D01*
X147031179Y-69554286D01*
X147066939Y-69529247D01*
X147227847Y-69368339D01*
X147358368Y-69181934D01*
X147385418Y-69123924D01*
X147431590Y-69071485D01*
X147498783Y-69052333D01*
X147565665Y-69072548D01*
X147610182Y-69123925D01*
X147637229Y-69181928D01*
X147637232Y-69181934D01*
X147767754Y-69368341D01*
X147928658Y-69529245D01*
X147928661Y-69529247D01*
X148115066Y-69659768D01*
X148321304Y-69755939D01*
X148541108Y-69814835D01*
X148703030Y-69829001D01*
X148767798Y-69834668D01*
X148767800Y-69834668D01*
X148767802Y-69834668D01*
X148824473Y-69829709D01*
X148994492Y-69814835D01*
X149214296Y-69755939D01*
X149420534Y-69659768D01*
X149606939Y-69529247D01*
X149767847Y-69368339D01*
X149792888Y-69332577D01*
X149847465Y-69288952D01*
X149894463Y-69279700D01*
X150619720Y-69279700D01*
X150717262Y-69260296D01*
X150764713Y-69250858D01*
X150901295Y-69194284D01*
X150973050Y-69146339D01*
X151024216Y-69112152D01*
X153062952Y-67073416D01*
X153118515Y-66990258D01*
X153145084Y-66950495D01*
X153201658Y-66813913D01*
X153229269Y-66675107D01*
X153230500Y-66668920D01*
X153230500Y-65326662D01*
X153250185Y-65259623D01*
X153283379Y-65225086D01*
X153290624Y-65220013D01*
X153319139Y-65200047D01*
X153480047Y-65039139D01*
X153610568Y-64852734D01*
X153706739Y-64646496D01*
X153765635Y-64426692D01*
X153785468Y-64200000D01*
X153765635Y-63973308D01*
X153706739Y-63753504D01*
X153610568Y-63547266D01*
X153480047Y-63360861D01*
X153480045Y-63360858D01*
X153319141Y-63199954D01*
X153132734Y-63069432D01*
X153132732Y-63069431D01*
X152926497Y-62973261D01*
X152926488Y-62973258D01*
X152706697Y-62914366D01*
X152706693Y-62914365D01*
X152706692Y-62914365D01*
X152706691Y-62914364D01*
X152706686Y-62914364D01*
X152480002Y-62894532D01*
X152479998Y-62894532D01*
X152253313Y-62914364D01*
X152253302Y-62914366D01*
X152033511Y-62973258D01*
X152033502Y-62973261D01*
X151827267Y-63069431D01*
X151827265Y-63069432D01*
X151640858Y-63199954D01*
X151479954Y-63360858D01*
X151349432Y-63547265D01*
X151349431Y-63547267D01*
X151253261Y-63753502D01*
X151253258Y-63753511D01*
X151194366Y-63973302D01*
X151194364Y-63973313D01*
X151174532Y-64199998D01*
X151174532Y-64200001D01*
X151194364Y-64426686D01*
X151194366Y-64426697D01*
X151253258Y-64646488D01*
X151253261Y-64646497D01*
X151349431Y-64852732D01*
X151349432Y-64852734D01*
X151479954Y-65039141D01*
X151640859Y-65200046D01*
X151676621Y-65225086D01*
X151720247Y-65279662D01*
X151729500Y-65326662D01*
X151729500Y-66232770D01*
X151709815Y-66299809D01*
X151693181Y-66320451D01*
X150271251Y-67742381D01*
X150209928Y-67775866D01*
X150183570Y-67778700D01*
X149894463Y-67778700D01*
X149827424Y-67759015D01*
X149792888Y-67725823D01*
X149767845Y-67690058D01*
X149606941Y-67529154D01*
X149420534Y-67398632D01*
X149420532Y-67398631D01*
X149214297Y-67302461D01*
X149214288Y-67302458D01*
X148994497Y-67243566D01*
X148994493Y-67243565D01*
X148994492Y-67243565D01*
X148994491Y-67243564D01*
X148994486Y-67243564D01*
X148767802Y-67223732D01*
X148767797Y-67223732D01*
X148600937Y-67238329D01*
X148532437Y-67224562D01*
X148502450Y-67202482D01*
X146706221Y-65406252D01*
X146706214Y-65406246D01*
X146632529Y-65357012D01*
X146632529Y-65357013D01*
X146583291Y-65324113D01*
X146446717Y-65267543D01*
X146446707Y-65267540D01*
X146301720Y-65238700D01*
X146301718Y-65238700D01*
X143417857Y-65238700D01*
X143350818Y-65219015D01*
X143305063Y-65166211D01*
X143295119Y-65097053D01*
X143318571Y-65044661D01*
X143316556Y-65043250D01*
X143450134Y-64852482D01*
X143546265Y-64646326D01*
X143546269Y-64646317D01*
X143598872Y-64450000D01*
X142635686Y-64450000D01*
X142640080Y-64445606D01*
X142692741Y-64354394D01*
X142720000Y-64252661D01*
X142720000Y-64147339D01*
X142692741Y-64045606D01*
X142640080Y-63954394D01*
X142635686Y-63950000D01*
X143598872Y-63950000D01*
X143598872Y-63949999D01*
X143546269Y-63753682D01*
X143546265Y-63753673D01*
X143450134Y-63547517D01*
X143319657Y-63361179D01*
X143158820Y-63200342D01*
X142972482Y-63069865D01*
X142766328Y-62973734D01*
X142570000Y-62921127D01*
X142570000Y-63884314D01*
X142565606Y-63879920D01*
X142474394Y-63827259D01*
X142372661Y-63800000D01*
X142267339Y-63800000D01*
X142165606Y-63827259D01*
X142074394Y-63879920D01*
X142070000Y-63884314D01*
X142070000Y-62921127D01*
X141873671Y-62973734D01*
X141667517Y-63069865D01*
X141481179Y-63200342D01*
X141320342Y-63361179D01*
X141189865Y-63547517D01*
X141093734Y-63753673D01*
X141093730Y-63753682D01*
X141041127Y-63949999D01*
X141041128Y-63950000D01*
X142004314Y-63950000D01*
X141999920Y-63954394D01*
X141947259Y-64045606D01*
X141920000Y-64147339D01*
X141920000Y-64252661D01*
X141947259Y-64354394D01*
X141999920Y-64445606D01*
X142004314Y-64450000D01*
X141041128Y-64450000D01*
X141093730Y-64646317D01*
X141093734Y-64646326D01*
X141189865Y-64852482D01*
X141323444Y-65043250D01*
X141321361Y-65044708D01*
X141345133Y-65098902D01*
X141334149Y-65167903D01*
X141287605Y-65220013D01*
X141222143Y-65238700D01*
X136806680Y-65238700D01*
X136661692Y-65267540D01*
X136661686Y-65267542D01*
X136525108Y-65324114D01*
X136525096Y-65324121D01*
X136475869Y-65357013D01*
X136402188Y-65406244D01*
X136402180Y-65406250D01*
X135230850Y-66577580D01*
X135230846Y-66577586D01*
X135181612Y-66651268D01*
X135181613Y-66651269D01*
X135148721Y-66700496D01*
X135148714Y-66700508D01*
X135092142Y-66837086D01*
X135092141Y-66837090D01*
X135063300Y-66982079D01*
X135063300Y-66982082D01*
X135063300Y-73784718D01*
X135063300Y-73784720D01*
X135063299Y-73784720D01*
X133095100Y-73784720D01*
X133095100Y-59476300D01*
X133114785Y-59409261D01*
X133167589Y-59363506D01*
X133219100Y-59352300D01*
X141227167Y-59352300D01*
X141294206Y-59371985D01*
G37*
%TD.AperFunction*%
%TD*%
M02*
